# xmcd CD database file
#
# Track frame offsets:
#	150
#	20413
#	38096
#	50602
#	64305
#	84314
#	105073
#	124167
#	143539
#	163794
#	181045
#	201227
#	219724
#
# Disc length: 3227 seconds
#
# Revision: 0
# Processed by: cddbd v1.5.1PL0 Copyright (c) Steve Scherf et al.
# Submitted via: CDex 1.51
#
DISCID=ab0c990d
DTITLE=Ilse De Lange - Here I Am/1998-2003
DYEAR=2003
DGENRE=Country
TTITLE0=I'm Not So Tough
TTITLE1=World Of Hurt
TTITLE2=I'd Be Yours
TTITLE3=When We Don't Talk
TTITLE4=Livi'n On Love
TTITLE5=I Still Cry
TTITLE6=Shine
TTITLE7=No Reason To Be Shy
TTITLE8=Heavenless
TTITLE9=Let Go
TTITLE10=I Almost Believed
TTITLE11=Wouldn't That Be Something
TTITLE12=All The Answers
EXTD=YEAR: 2003
EXTT0=
EXTT1=
EXTT2=
EXTT3=
EXTT4=
EXTT5=
EXTT6=
EXTT7=
EXTT8=
EXTT9=
EXTT10=
EXTT11=
EXTT12=
PLAYORDER=
